<svg width="128" height="128" viewBox="0 0 128 128" fill="none" xmlns="http://www.w3.org/2000/svg">
<path d="M19.7956 110.281C-5.76491 85.8681 -6.69488 45.3562 17.7185 19.7957C42.1319 -5.7649 82.6438 -6.69487 108.204 17.7185C133.765 42.1319 134.695 82.6438 110.281 108.204C85.8681 133.765 45.3562 134.695 19.7956 110.281Z" fill="url(#paint0_linear_17_15)"/>
<path fill-rule="evenodd" clip-rule="evenodd" d="M54.0599 36.0753L52.4521 36.1477L46.8726 36.3534L41.4835 36.4659L35.9026 36.7678L32.3664 39.4079L28.4394 42.9075L22.8789 48.21L22.1918 49.9307L21.7563 85.6953L22.4795 87.9177L23.6866 89.3779L33.8554 98.3752L35.2615 99.1653L40.8224 100.209L47.2353 101.17L81.0645 101.671L88.5468 100.628L94.3238 99.8483L96.5228 98.15L100.829 94.5598L103.607 92.1008L106.291 89.5443L106.968 88.4966L107.672 85.6223L108.095 50.7229L107.458 49.0788L106.528 48.0073L105.601 46.8396L102.339 43.7142L95.529 37.6514L93.8352 37.1455L89.4913 36.8889L84.9584 36.6294L76.7402 36.3153L54.0599 36.0753Z" fill="url(#paint1_linear_17_15)"/>
<path d="M56.5733 25.9197L54.1511 29.9225L54.0599 36.0753L76.7402 36.3153L76.7943 32.662L76.5607 29.293L74.1494 26.1802L75.6077 17.0667L76.9682 1.79765L54.8563 1.46997L55.7637 16.7727L56.5733 25.9197Z" fill="url(#paint2_linear_17_15)"/>
<path d="M52.4746 36.6471L54.0686 36.5754L76.728 36.8152L84.9298 37.1286L84.9393 37.129L89.4618 37.388L89.4627 37.388L93.7478 37.6413L95.2795 38.0987L102 44.0816L105.23 47.1772L106.137 48.3183L106.144 48.3267L106.151 48.3349L107.023 49.3406L107.594 50.8135L107.173 85.559L106.502 88.2959L105.903 89.2231L103.268 91.7325L100.503 94.1806L96.2098 97.76L94.1242 99.3707L88.4799 100.133L88.4777 100.133L81.0335 101.171L47.2762 100.67L40.9056 99.7162L35.4347 98.6891L34.1469 97.9655L24.0471 89.0293L22.9255 87.6725L22.2573 85.619L22.6906 50.0298L23.3028 48.4967L28.7783 43.2752L32.6829 39.7956L36.0806 37.2589L41.5022 36.9656L46.883 36.8533L46.883 36.8534L46.891 36.8531L52.4705 36.6473L52.4746 36.6471ZM76.2476 35.81L54.5673 35.5807L54.649 30.0654L57.0011 26.1786L57.0858 26.0386L57.0714 25.8757L56.2624 16.7359L55.3873 1.97789L76.4223 2.28961L75.1112 17.005L73.6557 26.1012L73.6215 26.3151L73.7541 26.4864L76.0724 29.4791L76.2941 32.6757L76.2476 35.81ZM77.4581 1.93327C88.5176 4.32033 99.0776 9.69282 107.859 18.0801C133.22 42.3027 134.143 82.4981 109.92 107.859C85.6972 133.22 45.5019 134.143 20.141 109.92C-5.21987 85.6973 -6.14258 45.5019 18.0801 20.141C28.1459 9.60221 40.9699 3.28352 54.3415 1.23566L54.3572 1.49956L55.2646 16.8023L55.265 16.8095L55.2657 16.8167L56.0608 25.8008L53.7233 29.6636L53.6532 29.7796L53.6512 29.9151L53.567 35.597L52.4337 35.648L52.4296 35.6482L46.8622 35.8535L46.8542 35.8538L41.4731 35.966L41.4648 35.9662L41.4565 35.9666L35.8756 36.2686L35.7246 36.2767L35.6035 36.3672L32.0673 39.0072L32.0499 39.0202L32.0337 39.0346L28.1067 42.5343L28.1004 42.5399L28.0943 42.5457L22.5338 47.8482L22.455 47.9234L22.4145 48.0246L21.7274 49.7453L21.693 49.8316L21.6918 49.9246L21.2563 85.6892L21.2553 85.7716L21.2808 85.85L22.004 88.0724L22.0335 88.1629L22.0941 88.2362L23.3012 89.6965L23.326 89.7266L23.3552 89.7524L33.5241 98.7497L33.564 98.785L33.6105 98.8111L35.0165 99.6012L35.0883 99.6416L35.1692 99.6568L40.7302 100.701L40.7393 100.702L40.7484 100.704L47.1612 101.664L47.1944 101.669L47.2279 101.67L81.0571 102.171L81.0955 102.172L81.1336 102.166L88.6136 101.124L88.6158 101.123L94.3907 100.344L94.5234 100.326L94.6294 100.244L96.8284 98.5458L96.8358 98.5401L96.843 98.5341L101.149 94.9439L101.155 94.9391L101.161 94.9342L103.938 92.4752L103.945 92.4692L103.951 92.4629L106.636 89.9064L106.679 89.8655L106.711 89.8157L107.388 88.768L107.434 88.6973L107.454 88.6156L108.158 85.7413L108.172 85.6856L108.172 85.6284L108.595 50.729L108.596 50.6324L108.561 50.5422L107.924 48.8981L107.892 48.8169L107.835 48.7512L106.913 47.6878L105.992 46.5286L105.971 46.502L105.947 46.4786L102.685 43.3532L102.678 43.3468L102.671 43.3407L95.8615 37.278L95.7786 37.2041L95.6721 37.1724L93.9783 36.6665L93.9227 36.6498L93.8647 36.6464L89.5208 36.3897L89.5199 36.3897L84.987 36.1302L84.987 36.1301L84.9775 36.1297L77.2474 35.8343L77.2943 32.6694L77.2946 32.6484L77.2931 32.6274L77.0595 29.2584L77.049 29.1069L76.956 28.9868L74.6774 26.0453L76.1014 17.1457L76.1042 17.1285L76.1057 17.1111L77.4581 1.93327ZM56.1215 0.98866C61.9794 0.259747 67.9229 0.345511 73.7681 1.25017L56.1215 0.98866Z" stroke="#510000"/>
<defs>
<linearGradient id="paint0_linear_17_15" x1="17.7185" y1="19.7957" x2="110.281" y2="108.204" gradientUnits="userSpaceOnUse">
<stop stop-color="#7D0000"/>
<stop offset="1" stop-color="#3A0000"/>
</linearGradient>
<linearGradient id="paint1_linear_17_15" x1="22.9545" y1="47.6135" x2="105.826" y2="52.7841" gradientUnits="userSpaceOnUse">
<stop stop-color="#1E1E1E"/>
<stop offset="1" stop-color="#070707"/>
</linearGradient>
<linearGradient id="paint2_linear_17_15" x1="55.1412" y1="1.60793" x2="75.0394" y2="36.5158" gradientUnits="userSpaceOnUse">
<stop stop-color="white"/>
<stop offset="0.604167" stop-color="#9A9A9A"/>
</linearGradient>
</defs>
</svg>
